<svg width="481" height="124" viewBox="0 0 481 124" fill="none" xmlns="http://www.w3.org/2000/svg">
<path d="M71.3678 10.0388C71.3518 9.80297 71.3678 9.55144 71.3998 9.48856C71.4158 9.40996 71.688 9.56716 72.0082 9.81869C72.3284 10.0859 73.2409 10.9506 74.0414 11.768C74.8419 12.5698 75.8825 13.7331 76.3788 14.3305C76.8751 14.9279 77.6596 16.0283 78.1558 16.7672C78.6361 17.506 79.4046 18.8423 79.8689 19.7541C80.3332 20.6658 80.9575 22.0493 81.2617 22.8196C81.5659 23.5899 82.0622 25.1462 82.3504 26.2781C82.6385 27.4099 82.9907 29.092 83.1348 30.051C83.2629 31.0099 83.423 32.6606 83.487 33.7453C83.5511 34.8929 83.5191 36.6536 83.407 37.9899C83.2949 39.2475 83.0388 41.1968 82.8306 42.313C82.6225 43.4291 82.1903 45.1898 81.8701 46.196C81.5659 47.2178 81.0856 48.5855 80.8295 49.23C80.5733 49.8746 79.9809 51.0693 79.5327 51.8553C79.0844 52.6571 78.1238 54.1977 77.3874 55.2824C76.651 56.3671 75.5623 57.8449 74.9699 58.5837C74.3616 59.3226 72.9047 60.8789 71.704 62.058C70.5193 63.237 68.8223 64.7619 67.9417 65.4379C67.0612 66.1296 65.6204 67.1514 64.7398 67.7331C63.8593 68.299 62.3384 69.1951 61.3778 69.7138C60.4012 70.2483 58.7523 71.0344 57.6956 71.4903C56.639 71.9304 54.7338 72.6379 53.4531 73.0466C52.1723 73.4553 50.2672 73.9898 49.2105 74.2256C48.1539 74.4457 46.0246 74.8073 44.4877 75.0274C42.2784 75.3261 41.0136 75.4047 38.4841 75.4047C35.8746 75.4047 34.7539 75.3261 32.4805 74.9959C30.9436 74.7759 28.7023 74.3514 27.5176 74.0527C26.3329 73.754 24.5238 73.1881 23.5152 72.7951C22.5066 72.4021 20.9857 71.7261 20.1532 71.3016C19.3207 70.8614 18.136 70.1855 17.5436 69.7767C16.9352 69.368 16.503 68.9907 16.583 68.9435C16.6471 68.8807 17.4315 68.9435 18.3121 69.0536C19.1926 69.1794 22.0743 69.3208 24.7159 69.368C28.5102 69.4466 30.0631 69.4152 32.0803 69.2108C33.4891 69.085 35.5063 68.8178 36.563 68.6449C37.6196 68.4719 39.4927 68.0789 40.7255 67.7959C41.9582 67.4973 43.8633 66.9785 44.968 66.6169C46.0727 66.2711 47.8337 65.6422 48.8904 65.2178C49.947 64.7933 51.708 63.9916 52.8127 63.4571C53.9174 62.9226 55.5343 62.0422 56.4148 61.5235C57.2954 61.0047 58.7362 60.0772 59.6168 59.4641C60.4973 58.851 61.8581 57.8291 62.6586 57.1846C63.4431 56.5243 64.7718 55.3296 65.6043 54.4964C66.4368 53.6789 67.5895 52.4056 68.1659 51.6667C68.7422 50.9278 69.5587 49.7645 69.975 49.0728C70.3912 48.3811 70.9675 47.2178 71.2397 46.4789C71.6399 45.4414 71.752 44.8754 71.752 43.9636C71.768 42.8947 71.704 42.6588 71.1276 41.4484C70.7594 40.7095 70.119 39.6562 69.6868 39.106C69.2545 38.5401 68.438 37.6754 67.8617 37.1567C67.2854 36.6536 66.1647 35.8047 65.3802 35.2859C64.5797 34.7671 63.1869 33.9654 62.2583 33.5095C61.3298 33.0536 59.7448 32.3619 58.7362 31.9689C57.7276 31.5759 55.8545 30.9313 54.5737 30.5383C53.293 30.1296 50.6994 29.4222 48.8103 28.9663C46.9212 28.4947 44.0394 27.8187 42.4065 27.4571C40.7735 27.0955 38.5482 26.5925 37.4435 26.3252C36.3388 26.0737 34.7539 25.6335 33.9214 25.382C33.0889 25.1148 31.9682 24.6903 31.4399 24.423C30.9116 24.1715 30.2872 23.7471 30.0311 23.5113C29.7429 23.2073 29.5988 22.8824 29.5988 22.5366C29.5988 22.2222 29.7909 21.7348 30.1111 21.2632C30.3993 20.8388 31.0717 20.1471 31.6 19.7226C32.1283 19.2982 33.201 18.6536 34.0014 18.2606C34.7859 17.8833 36.1307 17.3645 36.9632 17.0973C37.7957 16.83 39.0925 16.4842 39.8449 16.3113C40.5974 16.1383 42.0703 15.8554 43.1269 15.6824C44.1835 15.5095 46.2648 15.2108 47.7697 15.0536C49.2746 14.8807 52.5726 14.5506 55.1341 14.3305C57.6796 14.1104 60.7855 13.8274 62.0182 13.6859C63.2509 13.5445 65.028 13.3086 65.9726 13.1357C66.9331 12.9785 68.1819 12.6641 68.7742 12.444C69.3826 12.2239 70.087 11.8938 70.3752 11.7052C70.6634 11.5008 70.9996 11.1549 71.1276 10.9034C71.2717 10.6676 71.3838 10.2903 71.3678 10.0388Z" fill="#323232"/>
<path d="M35.4423 0.810831C36.4989 0.590744 38.1479 0.323496 39.1245 0.197732C40.3893 0.0248059 42.0543 -0.0223556 44.968 0.00908539C47.8177 0.0405264 49.5627 0.134849 50.7314 0.323496C51.66 0.46498 53.2449 0.76367 54.2536 0.983757C55.2622 1.20384 56.8791 1.64402 57.8557 1.94271C58.8323 2.25712 60.2892 2.76017 61.1056 3.07459C61.9221 3.389 62.5785 3.68769 62.5785 3.76629C62.5785 3.82917 62.3384 3.90777 62.0502 3.95493C61.7781 4.0021 60.7855 4.11214 59.8569 4.19074C58.9283 4.28506 56.735 4.53659 54.974 4.75668C53.2129 4.96105 50.5553 5.35406 49.0504 5.60559C47.5455 5.85712 45.1441 6.31301 43.6872 6.6117C42.2304 6.92611 39.925 7.49205 38.5642 7.86934C37.2034 8.26235 35.3623 8.82829 34.4817 9.1427C33.6012 9.45711 32.0963 10.0388 31.1197 10.4318C30.1431 10.8248 28.4621 11.5794 27.3575 12.1296C26.2528 12.6641 24.844 13.403 24.2356 13.7803C23.6272 14.1575 22.5706 14.8492 21.9142 15.3209C21.2578 15.8082 20.1372 16.7672 19.4327 17.4589C18.7123 18.1663 17.7357 19.3296 17.2394 20.0685C16.7431 20.8073 16.1508 21.8292 15.9106 22.3479C15.6865 22.8667 15.3503 23.7471 15.1742 24.313C14.9981 24.8789 14.7579 25.9794 14.6299 26.7497C14.5018 27.52 14.3897 28.9034 14.3897 29.8152C14.3897 30.727 14.4858 31.8274 14.5978 32.2519C14.7259 32.692 15.0301 33.4309 15.2863 33.9025C15.5424 34.3741 16.1508 35.1602 16.6311 35.6475C17.1113 36.1348 18.12 36.9208 18.8724 37.4082C19.6248 37.8798 20.8416 38.5558 21.594 38.9016C22.3465 39.2318 23.7393 39.7977 24.7159 40.1436C25.6925 40.5051 27.6617 41.1182 29.1185 41.527C30.5754 41.9357 33.9854 42.8003 36.7231 43.4291C39.4607 44.0737 42.6306 44.844 43.7673 45.1427C44.904 45.4414 46.697 45.9601 47.7216 46.3217C48.7623 46.6676 50.1871 47.2335 50.8915 47.5794C51.596 47.9252 52.4605 48.4754 52.8127 48.8056C53.277 49.2143 53.4691 49.513 53.4531 49.8274C53.4531 50.1732 53.2129 50.4248 52.1243 51.2108C51.4039 51.7453 50.043 52.6256 49.0825 53.1759C48.1379 53.7261 46.697 54.5121 45.8805 54.9051C45.0801 55.3138 43.5431 55.9898 42.4865 56.4143C41.4299 56.8387 39.5568 57.499 38.324 57.892C37.0913 58.285 34.6418 58.9453 32.8808 59.3697C31.1197 59.7942 28.174 60.423 26.3169 60.7689C24.4597 61.099 19.9771 61.8536 16.3589 62.4195C10.9477 63.2684 9.69892 63.4256 9.49079 63.2684C9.3307 63.1584 8.80238 62.5296 8.30608 61.885C7.79378 61.2405 6.80118 59.8256 6.08075 58.7409C5.36032 57.6562 4.3197 55.8483 3.75937 54.7322C3.19903 53.616 2.46259 51.9811 2.1424 51.1165C1.82221 50.2518 1.37394 48.8999 1.16582 48.1296C0.957691 47.3593 0.62149 45.9444 0.445384 44.9855C0.22125 43.8222 0.0931739 42.2973 0.0291356 40.3479C-0.0349026 38.0999 -0.0028835 36.9523 0.22125 35.3174C0.365337 34.154 0.701538 32.3776 0.941681 31.3872C1.19783 30.3968 1.63009 28.9348 1.91826 28.1645C2.19043 27.3942 2.70273 26.1051 3.05494 25.3348C3.40716 24.5645 4.04754 23.2754 4.49581 22.5051C4.94407 21.7348 5.71253 20.4929 6.20883 19.754C6.70513 19.0152 7.64969 17.7418 8.30608 16.9244C8.97849 16.1069 10.2112 14.7235 11.0437 13.8746C11.8602 13.0257 13.4452 11.5794 14.5498 10.6833C15.6545 9.77152 17.4796 8.41956 18.6323 7.6807C19.7849 6.92611 21.8662 5.74707 23.275 5.03965C24.6839 4.33223 26.6691 3.43616 27.6777 3.04314C28.6863 2.65013 30.4153 2.06847 31.52 1.75406C32.6246 1.43965 34.3857 1.0152 35.4423 0.810831Z" fill="#A83A3B"/>
<path fill-rule="evenodd" clip-rule="evenodd" d="M129.899 16.8457C133.373 16.8772 135.983 16.9872 137.503 17.1444C138.784 17.2859 140.833 17.5532 142.066 17.7261C143.299 17.899 145.556 18.292 147.077 18.5907C148.582 18.8894 150.023 19.2195 150.263 19.3453C150.519 19.4711 150.871 19.7383 151.064 19.9427C151.272 20.1471 151.432 20.5243 151.448 20.8545C151.464 21.1532 149.655 31.3086 147.445 43.4134C145.252 55.5182 143.411 65.5636 143.363 65.7365C143.315 65.9095 143.155 66.2239 142.979 66.444C142.819 66.6641 142.338 66.9942 141.938 67.1985C141.522 67.3872 140.129 67.7488 138.832 68.016C137.519 68.2675 134.942 68.692 133.101 68.9435C131.26 69.2108 128.41 69.5409 126.777 69.6824C125.144 69.8239 122.15 69.9496 120.133 69.9496C117.251 69.9654 116.115 69.9025 114.93 69.6824C114.097 69.5409 112.657 69.1636 111.728 68.8649C110.799 68.5505 109.471 68.016 108.766 67.6544C108.062 67.2929 106.941 66.6012 106.285 66.1138C105.628 65.6422 104.62 64.7461 104.059 64.1488C103.483 63.5514 102.619 62.4667 102.138 61.7278C101.658 60.9889 101.018 59.8256 100.713 59.1339C100.425 58.4422 100.009 57.2317 99.8009 56.4614C99.5928 55.6911 99.3526 54.1977 99.2566 53.1601C99.1605 51.9496 99.1445 50.7077 99.2406 49.7016C99.3206 48.837 99.8329 45.7872 100.361 42.9418C100.89 40.0964 101.482 37.1881 101.658 36.4964C101.834 35.8047 102.202 34.5313 102.474 33.6667C102.747 32.8021 103.291 31.3558 103.675 30.444C104.059 29.5322 104.716 28.2274 105.116 27.5357C105.516 26.844 106.221 25.775 106.685 25.1776C107.133 24.5802 107.982 23.6213 108.542 23.0553C109.118 22.4894 109.983 21.7348 110.463 21.3733C110.944 21.0117 111.904 20.3986 112.609 19.9898C113.313 19.5968 114.434 19.0781 115.09 18.8265C115.746 18.575 116.899 18.182 117.652 17.9776C118.404 17.7575 119.733 17.4746 120.613 17.3174C121.494 17.1759 122.759 17.0029 123.415 16.9243C124.071 16.8457 127.001 16.8143 129.899 16.8457ZM122.134 32.0946C121.75 32.3619 121.158 32.9278 120.805 33.3523C120.469 33.7925 119.941 34.6414 119.653 35.2387C119.365 35.8361 118.98 36.8737 118.788 37.5182C118.612 38.1628 118.052 40.851 117.556 43.492C116.691 48.0981 116.659 48.3654 116.723 50.5034C116.771 52.5942 116.803 52.7514 117.251 53.6317C117.54 54.1977 118.004 54.7636 118.404 55.078C118.788 55.361 119.397 55.6911 119.765 55.7855C120.213 55.9112 121.366 55.9741 123.095 55.9427C124.552 55.9112 126.233 55.8169 126.857 55.7068L127.978 55.5182C131.244 37.1252 132.204 31.6545 132.204 31.4973C132.22 31.3558 132.092 31.1829 131.932 31.1357C131.788 31.0885 130.139 31.0099 128.298 30.9785C125.096 30.8999 124.888 30.9156 123.879 31.2615C123.303 31.4658 122.518 31.8431 122.134 32.0946ZM183.691 16.7986C186.637 16.7829 188.142 16.83 189.374 17.0187C190.303 17.1602 191.632 17.4431 192.336 17.6632C193.041 17.8833 194.129 18.3078 194.738 18.6222C195.346 18.9209 196.179 19.3767 197.299 20.1156L198.98 19.2353C199.909 18.7479 201.238 18.1663 201.942 17.9462C202.646 17.7104 203.911 17.3802 204.744 17.2073C205.928 16.9558 207.129 16.8772 210.267 16.8143C212.876 16.7671 214.878 16.7986 216.03 16.9243C216.991 17.0344 218.592 17.3016 219.552 17.5374C220.529 17.789 222.018 18.3078 222.914 18.7165C223.795 19.1252 225.044 19.8641 225.7 20.3514C226.357 20.8388 227.285 21.7505 227.765 22.3479C228.23 22.961 228.87 23.9514 229.158 24.5488C229.462 25.1619 229.847 26.1837 230.023 26.8283C230.215 27.4728 230.439 28.8248 230.551 29.8152C230.679 31.1671 230.679 32.0632 230.551 33.3523C230.439 34.3112 229.062 42.3287 227.477 51.1951C225.412 62.7811 224.499 67.4815 224.275 67.9374C224.083 68.2833 223.747 68.7077 223.507 68.8806C223.091 69.1793 222.818 69.1951 208.074 69.1951L207.689 68.7706C207.417 68.4562 207.305 68.1418 207.305 67.6702C207.305 67.2929 208.57 59.9986 210.123 51.4309C212.492 38.3671 212.957 35.6003 212.973 34.2169C212.989 32.8492 212.941 32.4562 212.668 31.9532C212.492 31.623 212.092 31.1986 211.788 31.0099C211.276 30.7112 211.003 30.6798 208.746 30.6798C206.489 30.6798 206.201 30.7112 205.592 31.0414C205.208 31.23 204.728 31.6545 204.503 31.9846C204.279 32.299 203.911 33.1322 203.703 33.8239C203.479 34.5156 201.99 42.4073 200.373 51.3837C198.052 64.3689 197.395 67.7645 197.139 68.0946C196.963 68.3304 196.611 68.6763 196.371 68.8649C195.922 69.195 195.762 69.195 188.926 69.2422C185.084 69.2737 181.69 69.2422 181.418 69.1951C181.13 69.1479 180.713 68.9278 180.489 68.692C180.185 68.3619 180.073 68.0789 180.089 67.623C180.089 67.2771 181.354 60.03 182.875 51.5095C184.411 42.989 185.74 35.3488 185.852 34.5313C185.948 33.7139 185.98 32.8335 185.916 32.5663C185.868 32.3147 185.708 31.906 185.596 31.6702C185.452 31.4029 185.068 31.1042 184.62 30.8999C183.931 30.6012 183.627 30.5698 181.69 30.6169C179.753 30.6798 179.433 30.727 178.728 31.0728C178.184 31.3558 177.768 31.7173 177.399 32.2518C177.111 32.692 176.727 33.4938 176.551 34.0597C176.391 34.6256 174.934 42.4073 173.317 51.3837C170.899 64.8876 170.339 67.7488 170.067 68.1261C169.875 68.3619 169.523 68.7077 169.298 68.8806C168.866 69.1793 168.61 69.1951 153.801 69.1951L153.417 68.7706C153.145 68.4562 153.033 68.1418 153.033 67.6702C153.033 67.2929 154.329 59.7785 155.93 50.9593C157.515 42.14 158.956 34.3584 159.132 33.6667C159.308 32.975 159.677 31.7331 159.949 30.9156C160.221 30.0981 160.781 28.7147 161.182 27.8501C161.598 26.9855 162.318 25.7121 162.799 25.0204C163.263 24.3287 164.303 23.1182 165.104 22.3322C166 21.4676 167.089 20.6029 167.922 20.0999C168.674 19.644 169.795 19.0781 170.403 18.8265C171.011 18.575 172.164 18.182 172.965 17.9462C173.765 17.7261 175.27 17.4117 176.327 17.2388C177.383 17.0658 178.568 16.9086 178.968 16.8772C179.368 16.8457 181.482 16.8143 183.691 16.7986Z" fill="#323232"/>
<path fill-rule="evenodd" clip-rule="evenodd" d="M260.665 5.46411C260.905 5.46411 261.353 5.55843 261.657 5.6842C261.962 5.80996 262.298 6.06149 262.378 6.23442C262.458 6.40734 262.538 6.76891 262.538 7.02044C262.538 7.27197 262.17 9.56717 261.737 12.0982C261.289 14.6135 260.905 16.8458 260.777 17.396H266.668C270.046 17.396 272.8 17.4589 273.152 17.5532C273.601 17.679 273.793 17.8362 273.969 18.2134C274.177 18.6851 274.113 19.1567 273.28 23.8414C272.768 26.6554 272.272 29.1078 272.176 29.3121C272.064 29.5008 271.743 29.7995 271.471 29.9724C270.959 30.2711 270.655 30.2868 258.375 30.2868L258.215 31.12C258.135 31.5602 257.159 36.9523 256.07 43.099C254.965 49.2457 254.021 54.685 253.957 55.2038C253.893 55.8012 253.909 56.2728 254.037 56.5086C254.133 56.6973 254.469 56.9645 254.773 57.0903C255.238 57.2789 256.23 57.3261 260.265 57.3261C263.002 57.3261 265.452 57.389 265.788 57.4833C266.108 57.5776 266.492 57.7977 266.62 58.0021C266.748 58.1907 266.861 58.5366 266.861 58.7881C266.861 59.0239 266.524 61.0676 266.124 63.3313C265.644 66.0353 265.292 67.623 265.1 67.9374C264.939 68.189 264.603 68.5348 264.347 68.6763C264.107 68.8178 263.066 69.085 262.058 69.258C261.049 69.4152 259.384 69.651 258.375 69.761C257.367 69.8711 254.693 69.9654 252.452 69.9654C249.282 69.9654 248.049 69.9025 246.929 69.6981C246.144 69.5566 244.975 69.2894 244.367 69.1007C243.759 68.9121 242.702 68.5034 242.046 68.1732C241.389 67.8588 240.413 67.2457 239.884 66.8056C239.356 66.3811 238.556 65.5165 238.123 64.8719C237.611 64.1173 237.131 63.1741 236.843 62.278C236.378 60.8946 236.362 60.816 236.394 54.4178L240.493 31.8589C243.535 15.1479 244.671 9.20559 244.879 8.92262C245.04 8.71826 245.424 8.41957 245.728 8.26236C246.08 8.07372 248.93 7.49206 253.252 6.72175C257.079 6.04577 260.409 5.47983 260.665 5.46411V5.46411ZM305.123 16.72C306.132 16.7514 307.621 16.8929 308.405 17.003C309.206 17.1287 310.311 17.3645 310.887 17.5217C311.463 17.6947 312.504 18.0562 313.208 18.3549C313.913 18.6379 315.097 19.2824 315.85 19.7698C316.602 20.2571 317.755 21.2161 318.411 21.892C319.068 22.5837 319.868 23.527 320.188 23.9986C320.509 24.4702 321.021 25.3663 321.325 25.9637C321.645 26.5768 322.078 27.5672 322.302 28.1645C322.526 28.7776 322.862 30.051 323.054 30.9942C323.246 31.9846 323.438 33.651 323.486 34.9244C323.534 36.1506 323.502 37.754 323.406 38.5401C323.31 39.3261 322.958 41.4798 322.622 43.3348C322.19 45.7243 321.917 46.8562 321.693 47.1864C321.517 47.4379 321.117 47.7837 320.813 47.9252C320.285 48.1925 319.244 48.2082 291.835 48.2082L291.723 48.8056C291.659 49.12 291.595 50.0946 291.595 50.9593C291.595 52.0597 291.675 52.7514 291.868 53.2388C292.028 53.6632 292.428 54.1977 292.844 54.575C293.228 54.9208 293.933 55.3453 294.413 55.5025C295.165 55.7698 295.838 55.8169 299.44 55.8798C301.729 55.9112 305.476 55.8641 307.765 55.7698C310.054 55.6597 312.792 55.5025 313.849 55.4082C314.905 55.3139 316.122 55.2353 316.538 55.2195C317.195 55.2038 317.371 55.2667 317.707 55.644C317.915 55.8798 318.091 56.2414 318.091 56.4615C318.091 56.6815 317.691 58.8353 317.211 61.2562C316.73 63.6772 316.218 65.878 316.09 66.1296C315.962 66.3811 315.61 66.7427 315.338 66.9156C315.049 67.0885 314.025 67.4344 313.048 67.7016C312.088 67.9689 310.054 68.4248 308.565 68.7235C307.077 69.0064 304.979 69.368 303.923 69.4938C302.866 69.6195 300.705 69.8082 299.12 69.9182C297.535 70.0125 295.165 70.0597 293.837 70.0125C292.412 69.9497 290.811 69.7924 289.914 69.6038C289.082 69.4309 287.817 69.1007 287.113 68.8649C286.408 68.6449 285.079 68.0789 284.151 67.6073C283.222 67.1357 281.894 66.3025 281.189 65.768C280.485 65.2178 279.508 64.306 279.012 63.7558C278.516 63.2056 277.747 62.2152 277.315 61.5706C276.883 60.9261 276.29 59.8256 276.002 59.1339C275.714 58.4422 275.298 57.2003 275.073 56.3829C274.865 55.5654 274.641 54.0405 274.561 53.0029C274.481 51.9654 274.481 50.2361 274.561 49.1514C274.625 48.0667 274.977 45.4571 275.346 43.3348C275.698 41.2126 276.146 38.8859 276.322 38.1471C276.482 37.4082 276.819 36.182 277.059 35.396C277.283 34.6257 277.795 33.2108 278.179 32.2519C278.564 31.3086 279.172 29.9881 279.54 29.3436C279.892 28.699 280.629 27.5357 281.173 26.7497C281.701 25.9794 282.87 24.6274 283.751 23.7628C284.727 22.7881 285.976 21.7663 286.953 21.1375C287.833 20.5558 289.242 19.7698 290.074 19.3925C290.907 19.0152 292.172 18.5121 292.876 18.2921C293.581 18.072 294.589 17.7733 295.117 17.6475C295.646 17.5217 296.798 17.2859 297.679 17.1602C298.56 17.0187 300.176 16.8458 301.281 16.7672C302.386 16.7043 304.115 16.6728 305.123 16.72ZM298.175 30.7741C297.743 30.9785 296.991 31.5759 296.494 32.0947C295.998 32.6134 295.374 33.4623 295.085 33.9811C294.813 34.4999 294.397 35.4589 294.173 36.1034C293.965 36.7479 293.693 37.5811 293.613 37.9584L293.436 38.6187H306.804C306.997 37.0938 307.045 36.0091 307.045 35.2388C307.045 34.3113 306.949 33.5409 306.772 32.975C306.612 32.5034 306.228 31.8274 305.908 31.4816C305.588 31.12 304.963 30.6798 304.467 30.4597C303.795 30.161 303.266 30.0667 302.082 30.0353C301.185 30.0038 300.225 30.0667 299.76 30.1768C299.328 30.2868 298.608 30.5541 298.175 30.7741ZM409.906 16.6414C410.354 16.6257 412.179 16.6886 413.989 16.7672C415.798 16.8615 418.535 17.0659 420.072 17.2388C421.609 17.4117 423.979 17.7261 425.323 17.9462C426.652 18.1663 428.573 18.5121 429.566 18.7165C430.542 18.9209 431.647 19.2196 431.983 19.3768C432.335 19.534 432.752 19.8955 432.912 20.1471C433.104 20.4615 433.184 20.8073 433.152 21.1689C433.104 21.4676 431.311 31.4501 429.134 43.3348C426.972 55.2195 425.163 65.2021 425.099 65.5008C425.035 65.8309 424.779 66.2711 424.411 66.6169C424.011 67.0256 423.514 67.2929 422.714 67.5287C422.105 67.7173 420.152 68.1104 418.391 68.409C416.63 68.7077 414.037 69.085 412.628 69.258C411.219 69.4309 409.058 69.6667 407.825 69.761C406.592 69.8711 403.854 69.9654 401.741 69.9654C398.667 69.9811 397.611 69.9182 396.458 69.6981C395.674 69.5409 394.441 69.2422 393.736 69.0379C393.032 68.8335 391.671 68.2676 390.695 67.7959C389.718 67.3243 388.469 66.5855 387.893 66.1453C387.317 65.7208 386.34 64.8562 385.732 64.2274C385.107 63.5828 384.243 62.5296 383.81 61.885C383.378 61.2405 382.754 60.1086 382.418 59.3698C382.081 58.6309 381.649 57.3575 381.425 56.5401C381.217 55.7226 380.961 54.1977 380.865 53.1601C380.737 51.8711 380.737 50.7864 380.849 49.7016C380.929 48.837 381.441 45.7872 381.969 42.9418C382.498 40.0964 383.186 36.7951 383.506 35.6318C383.81 34.4685 384.323 32.8335 384.643 32.0161C384.963 31.1986 385.475 29.9567 385.812 29.265C386.132 28.5733 386.708 27.52 387.092 26.9069C387.461 26.3095 388.101 25.382 388.517 24.8632C388.918 24.3444 389.75 23.4327 390.374 22.8353C390.983 22.2379 392.007 21.389 392.616 20.9645C393.24 20.5401 394.361 19.8798 395.145 19.5025C395.914 19.1252 397.162 18.6065 397.947 18.3549C398.715 18.0877 399.996 17.7418 400.781 17.5689C401.565 17.396 402.83 17.1759 403.582 17.0816C404.335 16.9715 405.888 16.8458 407.024 16.7829C408.177 16.7043 409.474 16.6414 409.906 16.6414ZM404.479 31.7174C404.047 31.9217 403.294 32.5191 402.814 33.0379C402.253 33.6353 401.693 34.4527 401.325 35.2388C400.989 35.9305 400.572 37.0623 400.396 37.754C400.22 38.4457 399.676 41.1654 399.18 43.8064C398.539 47.3121 398.299 48.9785 398.299 50.016C398.299 50.8021 398.379 51.8553 398.491 52.3741C398.603 52.8929 398.908 53.6632 399.18 54.0877C399.516 54.6379 399.916 54.9994 400.54 55.3453C401.421 55.8326 401.437 55.8326 404.143 55.8798C405.76 55.8955 407.409 55.8326 408.225 55.7226L409.57 55.5182C412.852 37.1252 413.812 31.6545 413.812 31.4973C413.828 31.3244 413.684 31.1986 413.396 31.1514C413.14 31.12 411.571 31.0414 409.906 30.9942C407.697 30.9471 406.64 30.9785 406.064 31.12C405.632 31.23 404.911 31.4973 404.479 31.7174ZM461.697 16.6414C462.097 16.6257 463.682 16.6886 465.219 16.7672C466.756 16.8615 468.885 17.0344 469.942 17.1602C470.999 17.3017 473.096 17.6475 474.585 17.9462C476.09 18.2449 477.771 18.6379 478.347 18.8108C478.923 18.9838 479.548 19.2824 479.756 19.4868C480.012 19.7383 480.108 20.0056 480.108 20.4615C480.108 20.8073 479.676 23.3541 479.147 26.1209C478.619 28.8877 478.075 31.3086 477.947 31.513C477.819 31.7016 477.515 31.9375 477.274 32.0318C476.922 32.1733 476.186 32.1418 473.944 31.8746C472.359 31.6859 469.654 31.3872 467.941 31.2143C466.052 31.0099 463.618 30.8685 461.777 30.8527C459.184 30.837 458.639 30.8842 458.143 31.12C457.807 31.2615 457.455 31.5444 457.358 31.7488C457.262 31.9375 457.23 32.3619 457.278 32.692C457.342 33.0693 457.567 33.4466 457.919 33.7925C458.223 34.0597 460.256 35.3488 462.433 36.6379C464.627 37.927 467.172 39.4833 468.101 40.0964C469.013 40.7095 470.374 41.7785 471.111 42.4702C471.863 43.1619 472.792 44.1523 473.192 44.6711C473.592 45.1898 474.185 46.1802 474.521 46.8719C474.857 47.5636 475.273 48.5855 475.417 49.1514C475.641 49.9689 475.705 50.7392 475.689 52.9243C475.673 55.3296 475.625 55.8641 475.273 57.1689C475.049 57.9863 474.633 59.1654 474.361 59.7628C474.072 60.3759 473.528 61.3191 473.144 61.885C472.76 62.451 472.023 63.3313 471.511 63.8344C470.999 64.3532 470.118 65.1235 469.542 65.5479C468.965 65.9724 467.637 66.727 466.58 67.2457C465.427 67.7959 463.858 68.3933 462.658 68.7235C461.553 69.0379 459.648 69.4309 458.415 69.6195C456.526 69.9025 455.485 69.9654 451.771 69.9654C448.697 69.9654 446.616 69.8868 444.887 69.6981C443.526 69.5409 441.541 69.2737 440.484 69.1165C439.428 68.9435 437.811 68.6134 436.882 68.3933C435.954 68.1732 434.993 67.8745 434.721 67.7173C434.465 67.5601 434.145 67.1986 434.049 66.9313C433.872 66.5069 433.952 65.7837 434.785 61.0676C435.73 55.754 435.746 55.6754 436.226 55.251C436.514 54.9995 436.914 54.8108 437.17 54.8108C437.411 54.8108 438.611 54.9523 439.844 55.1095C441.077 55.2824 443.59 55.5811 445.447 55.7698C447.769 56.0056 449.898 56.1313 452.331 56.1313C455.79 56.147 455.87 56.147 456.638 55.754C457.118 55.5182 457.551 55.1409 457.743 54.8108C457.951 54.465 458.079 53.9776 458.079 53.4746C458.079 52.9505 457.977 52.5366 457.775 52.2326C457.599 51.9811 457.166 51.5881 456.814 51.3523C456.462 51.1165 454.237 49.8117 451.851 48.4283C449.482 47.0606 446.952 45.52 446.248 45.0326C445.543 44.5296 444.439 43.6021 443.782 42.989C443.142 42.3602 442.309 41.4169 441.925 40.8981C441.557 40.3794 441.061 39.6091 440.837 39.1689C440.612 38.7444 440.276 37.8484 440.068 37.2038C439.716 36.1348 439.684 35.7418 439.684 33.1165C439.7 30.6169 439.748 30.0038 440.052 28.7934C440.26 28.023 440.708 26.7811 441.061 26.0423C441.413 25.3034 442.021 24.2816 442.39 23.7628C442.774 23.244 443.59 22.3637 444.215 21.7977C444.839 21.2318 445.912 20.4458 446.6 20.037C447.288 19.644 448.505 19.0466 449.29 18.7322C450.074 18.4178 451.419 17.9934 452.251 17.789C453.084 17.5689 454.493 17.2859 455.373 17.1445C456.254 17.0187 457.871 16.8458 458.975 16.7829C460.08 16.7043 461.297 16.6414 461.697 16.6414ZM339.672 17.396C345.9 17.396 347.165 17.4274 347.629 17.6318C347.981 17.789 348.269 18.0562 348.413 18.3864C348.605 18.7794 348.75 22.2851 349.15 35.6318C349.502 47.4536 349.694 52.4999 349.838 52.8143C349.998 53.1916 350.11 53.2545 350.495 53.2073C350.799 53.1759 351.119 52.9715 351.407 52.6099C351.711 52.2326 353.937 46.6361 358.275 35.396C362.166 25.2877 364.839 18.5907 365.047 18.3549C365.239 18.1506 365.688 17.8519 366.04 17.6947C366.632 17.4274 367.241 17.396 374.333 17.396C380.769 17.396 382.049 17.4274 382.53 17.6318C382.834 17.7576 383.186 18.0562 383.298 18.2763C383.442 18.575 383.442 18.7794 383.314 19.0938C383.202 19.3296 378.88 28.7148 373.692 39.9549C368.489 51.1951 364.071 60.7532 363.847 61.1776C363.622 61.6178 362.998 62.6082 362.47 63.3785C361.941 64.1645 361.013 65.2807 360.404 65.878C359.812 66.4754 358.772 67.3086 358.115 67.7331C357.459 68.1575 356.37 68.7077 355.714 68.9593C355.057 69.1951 353.905 69.5252 353.152 69.6667C352.4 69.8082 350.719 69.9654 349.39 70.0125C348.029 70.0597 346.188 70.0283 345.147 69.9182C344.139 69.8239 342.762 69.6038 342.106 69.4152C341.449 69.2422 340.441 68.8649 339.88 68.5977C339.32 68.3147 338.455 67.7331 337.959 67.2929C337.463 66.837 336.822 66.0981 336.55 65.6422C336.262 65.1706 335.846 64.3689 335.638 63.8501C335.414 63.3313 335.125 62.3724 334.981 61.7278C334.853 61.0833 333.829 51.4938 332.724 40.4265C331.619 29.3593 330.723 19.9899 330.707 19.5969C330.691 19.2038 330.803 18.6536 330.947 18.3864C331.107 18.1034 331.459 17.7576 331.747 17.6318C332.164 17.4431 333.524 17.4117 339.672 17.396Z" fill="#A83A3B"/>
<path d="M48.6313 116.995V94.0759H53.3045V116.995H48.6313ZM58.4633 116.995V94.0759H62.6554L75.1631 111.188L73.823 113.937V94.0759H78.1525V116.995H74.3727L61.5559 99.8143L62.8272 97.7182V116.995H58.4633ZM88.4148 116.995V97.8213H81.4738V94.0759H100.063V97.8213H93.088V116.995H88.4148ZM103.395 116.995V94.0759H118.755V97.8213H108.068V103.628H117.346V107.408H108.068V113.25H118.755V116.995H103.395ZM123.63 116.995V94.0759H134.282C136.779 94.0759 138.703 94.6715 140.054 95.8627C141.429 97.031 142.116 98.7949 142.116 101.154C142.116 102.254 141.887 103.308 141.429 104.316C140.994 105.301 140.341 106.125 139.47 106.79C138.623 107.454 137.58 107.866 136.343 108.027L136.378 106.515L143.284 116.995H137.409L131.361 106.858L133.457 108.714H128.303V116.995H123.63ZM128.303 105.14H133.285C134.545 105.14 135.507 104.843 136.172 104.247C136.836 103.628 137.168 102.678 137.168 101.395C137.168 100.25 136.893 99.3676 136.343 98.749C135.794 98.1305 134.923 97.8213 133.732 97.8213H128.303V105.14ZM147.22 116.995V94.0759H151.893V116.995H147.22ZM167.017 117.407C164.749 117.407 162.801 116.984 161.175 116.136C159.549 115.266 158.3 113.96 157.43 112.219C156.559 110.455 156.124 108.233 156.124 105.553C156.124 101.635 157.063 98.6803 158.942 96.6874C160.843 94.6715 163.535 93.6635 167.017 93.6635C169.307 93.6635 171.266 94.0988 172.892 94.9693C174.519 95.8398 175.767 97.1455 176.638 98.8865C177.531 100.627 177.978 102.85 177.978 105.553C177.978 109.447 177.027 112.402 175.126 114.418C173.247 116.411 170.544 117.407 167.017 117.407ZM167.017 113.525C168.391 113.525 169.525 113.261 170.418 112.734C171.335 112.184 172.022 111.325 172.48 110.157C172.938 108.989 173.167 107.443 173.167 105.518C173.167 103.594 172.938 102.059 172.48 100.914C172.022 99.7455 171.335 98.8979 170.418 98.3711C169.525 97.8442 168.391 97.5808 167.017 97.5808C165.688 97.5808 164.565 97.8556 163.649 98.4054C162.756 98.9323 162.08 99.7799 161.622 100.948C161.164 102.094 160.934 103.628 160.934 105.553C160.934 107.477 161.164 109.023 161.622 110.191C162.08 111.36 162.756 112.207 163.649 112.734C164.565 113.261 165.688 113.525 167.017 113.525ZM182.185 116.995V94.0759H192.837C195.334 94.0759 197.259 94.6715 198.61 95.8627C199.985 97.031 200.672 98.7949 200.672 101.154C200.672 102.254 200.443 103.308 199.985 104.316C199.549 105.301 198.896 106.125 198.026 106.79C197.178 107.454 196.136 107.866 194.899 108.027L194.933 106.515L201.84 116.995H195.964L189.917 106.858L192.013 108.714H186.858V116.995H182.185ZM186.858 105.14H191.841C193.101 105.14 194.063 104.843 194.727 104.247C195.392 103.628 195.724 102.678 195.724 101.395C195.724 100.25 195.449 99.3676 194.899 98.749C194.349 98.1305 193.479 97.8213 192.288 97.8213H186.858V105.14ZM215.406 116.995V94.0759H224.031C227.833 94.0759 230.64 95.038 232.449 96.9622C234.282 98.8865 235.198 101.739 235.198 105.518C235.198 109.298 234.282 112.162 232.449 114.109C230.64 116.033 227.833 116.995 224.031 116.995H215.406ZM220.079 113.25H223.515C225.829 113.25 227.559 112.643 228.704 111.428C229.849 110.191 230.422 108.221 230.422 105.518C230.422 102.838 229.849 100.879 228.704 99.6425C227.559 98.4054 225.829 97.7869 223.515 97.7869H220.079V113.25ZM239.399 116.995V94.0759H254.758V97.8213H244.072V103.628H253.35V107.408H244.072V113.25H254.758V116.995H239.399ZM266.987 117.407C265.818 117.407 264.776 117.35 263.86 117.236C262.966 117.121 262.142 116.938 261.386 116.686C260.653 116.434 259.908 116.113 259.152 115.724V111.222C260.114 112.001 261.237 112.62 262.52 113.078C263.825 113.513 265.154 113.731 266.505 113.731C267.742 113.731 268.67 113.49 269.289 113.009C269.93 112.505 270.251 111.784 270.251 110.844C270.251 110.134 269.987 109.562 269.461 109.126C268.957 108.691 268.281 108.313 267.433 107.992C266.586 107.672 265.658 107.339 264.65 106.996C263.94 106.744 263.241 106.469 262.554 106.171C261.89 105.85 261.283 105.45 260.733 104.969C260.206 104.487 259.782 103.892 259.461 103.182C259.141 102.449 258.98 101.555 258.98 100.501C258.98 99.6539 259.141 98.8178 259.461 97.9931C259.782 97.1684 260.275 96.4354 260.939 95.7939C261.603 95.1296 262.462 94.6027 263.516 94.2133C264.57 93.8239 265.83 93.6292 267.296 93.6292C268.212 93.6292 269.014 93.6864 269.701 93.801C270.411 93.9155 271.087 94.0873 271.728 94.3164C272.37 94.5455 273.034 94.8318 273.721 95.1754V99.6768C273.172 99.2874 272.587 98.9209 271.969 98.5772C271.35 98.2107 270.686 97.9129 269.976 97.6838C269.289 97.4548 268.544 97.3288 267.742 97.3059C266.918 97.283 266.208 97.3746 265.612 97.5808C265.016 97.7869 264.558 98.0962 264.238 98.5085C263.917 98.9209 263.757 99.4134 263.757 99.9861C263.757 100.696 263.951 101.269 264.341 101.704C264.73 102.116 265.28 102.46 265.99 102.735C266.7 103.01 267.513 103.296 268.43 103.594C269.323 103.869 270.159 104.178 270.938 104.522C271.74 104.843 272.439 105.255 273.034 105.759C273.653 106.263 274.134 106.881 274.477 107.614C274.844 108.347 275.027 109.241 275.027 110.295C275.027 111.577 274.729 112.757 274.134 113.834C273.538 114.91 272.645 115.781 271.454 116.445C270.285 117.087 268.796 117.407 266.987 117.407ZM279.23 116.995V94.0759H283.903V116.995H279.23ZM299.164 117.407C296.874 117.407 294.903 116.995 293.254 116.17C291.605 115.346 290.333 114.063 289.44 112.322C288.569 110.558 288.134 108.29 288.134 105.518C288.134 102.792 288.569 100.559 289.44 98.8178C290.333 97.0539 291.605 95.7481 293.254 94.9005C294.903 94.053 296.862 93.6292 299.13 93.6292C300.527 93.6292 301.89 93.7781 303.219 94.0759C304.548 94.3508 305.819 94.7516 307.033 95.2785V99.6081C305.75 98.9438 304.513 98.4054 303.322 97.9931C302.154 97.5808 300.951 97.3746 299.714 97.3746C298.225 97.3746 296.965 97.638 295.934 98.1649C294.926 98.6918 294.159 99.5508 293.632 100.742C293.128 101.933 292.876 103.525 292.876 105.518C292.876 107.488 293.14 109.08 293.666 110.295C294.193 111.486 294.949 112.356 295.934 112.906C296.942 113.433 298.133 113.696 299.508 113.696C300.241 113.696 300.917 113.651 301.535 113.559C302.177 113.444 302.772 113.273 303.322 113.043V108.267H299.027V104.522H307.961V115.174C306.586 115.907 305.155 116.468 303.666 116.858C302.2 117.224 300.699 117.407 299.164 117.407ZM313.122 116.995V94.0759H317.314L329.822 111.188L328.482 113.937V94.0759H332.811V116.995H329.031L316.214 99.8143L317.486 97.7182V116.995H313.122ZM345.307 117.407C344.139 117.407 343.096 117.35 342.18 117.236C341.287 117.121 340.462 116.938 339.706 116.686C338.973 116.434 338.228 116.113 337.472 115.724V111.222C338.435 112.001 339.557 112.62 340.84 113.078C342.146 113.513 343.474 113.731 344.826 113.731C346.063 113.731 346.991 113.49 347.609 113.009C348.251 112.505 348.571 111.784 348.571 110.844C348.571 110.134 348.308 109.562 347.781 109.126C347.277 108.691 346.601 108.313 345.754 107.992C344.906 107.672 343.978 107.339 342.97 106.996C342.26 106.744 341.561 106.469 340.874 106.171C340.21 105.85 339.603 105.45 339.053 104.969C338.526 104.487 338.102 103.892 337.782 103.182C337.461 102.449 337.301 101.555 337.301 100.501C337.301 99.6539 337.461 98.8178 337.782 97.9931C338.102 97.1684 338.595 96.4354 339.259 95.7939C339.924 95.1296 340.783 94.6027 341.836 94.2133C342.89 93.8239 344.15 93.6292 345.616 93.6292C346.532 93.6292 347.334 93.6864 348.021 93.801C348.732 93.9155 349.407 94.0873 350.049 94.3164C350.69 94.5455 351.355 94.8318 352.042 95.1754V99.6768C351.492 99.2874 350.908 98.9209 350.289 98.5772C349.671 98.2107 349.006 97.9129 348.296 97.6838C347.609 97.4548 346.865 97.3288 346.063 97.3059C345.238 97.283 344.528 97.3746 343.932 97.5808C343.337 97.7869 342.879 98.0962 342.558 98.5085C342.237 98.9209 342.077 99.4134 342.077 99.9861C342.077 100.696 342.272 101.269 342.661 101.704C343.05 102.116 343.6 102.46 344.31 102.735C345.021 103.01 345.834 103.296 346.75 103.594C347.643 103.869 348.48 104.178 349.258 104.522C350.06 104.843 350.759 105.255 351.355 105.759C351.973 106.263 352.454 106.881 352.798 107.614C353.164 108.347 353.348 109.241 353.348 110.295C353.348 111.577 353.05 112.757 352.454 113.834C351.858 114.91 350.965 115.781 349.774 116.445C348.606 117.087 347.117 117.407 345.307 117.407ZM367.181 116.995V94.0759H371.854V113.215H382.3V116.995H367.181ZM387.938 116.995V97.8213H380.997V94.0759H399.587V97.8213H392.611V116.995H387.938ZM402.918 116.995V94.0759H411.543C415.346 94.0759 418.152 95.038 419.962 96.9622C421.794 98.8865 422.711 101.739 422.711 105.518C422.711 109.298 421.794 112.162 419.962 114.109C418.152 116.033 415.346 116.995 411.543 116.995H402.918ZM407.592 113.25H411.028C413.341 113.25 415.071 112.643 416.216 111.428C417.362 110.191 417.934 108.221 417.934 105.518C417.934 102.838 417.362 100.879 416.216 99.6425C415.071 98.4054 413.341 97.7869 411.028 97.7869H407.592V113.25ZM426.568 116.995V112.562H431.103V116.995H426.568Z" fill="black"/>
</svg>
